/* XPM */
static const char *fmplayer_xpm_32[] = {
/* columns rows colors chars-per-pixel */
"32 32 8 1 ",
"  c gray25",
". c #606060",
"X c #40A040",
"o c #808080",
"O c #A0A0A0",
"+ c #C0C0C0",
"@ c #D8D8D8",
"# c white",
/* pixels */
"XXXXXXXXXXXXXXXXXXXXXXXXXXXXXXXX",
"OOXOOOXOOOXOOOXOOOXOOOXOOOXOOOXO",
"##X###X###X###X###X###X###X###X#",
"@@X@@@X@@@X@@@X@@@X@@@X@@@X@@@X@",
"++X+++X+++X+++X+++X+++X+++X+++X+",
"................................",
"                                ",
"                                ",
"  #   # #   #                   ",
"  #   # ## ##                   ",
"   # #  # # #                   ",
"    #   #   #                   ",
"    #   #   #                   ",
"    #   #   #                   ",
"    #   #   #                   ",
"    #   #   #                   ",
"                                ",
"   ###   ###   ###   ###        ",
"  #   # #   # #   # #   #       ",
"      # #     #   # #   #       ",
"     #  ####  #   #  ###        ",
"    #   #   # #   # #   #       ",
"   #    #   # #   # #   #       ",
"  #     #   # #   # #   #       ",
"  #####  ###   ###   ###        ",
"                                ",
"                                ",
"++X+++X+++X+++X+++X+++X+++X+++X+",
"++X+++X+++X+++X+++X+++X+++X+++X+",
"OOXOOOXOOOXOOOXOOOXOOOXOOOXOOOXO",
"ooXoooXoooXoooXoooXoooXoooXoooXo",
"XXXXXXXXXXXXXXXXXXXXXXXXXXXXXXXX"
};
